<svg width="24" height="24" viewBox="0 0 24 24" fill="none" xmlns="http://www.w3.org/2000/svg">
<path d="M11.9423 21C11.9423 21 21.6047 16.8462 21.6346 8.75163C21.639 7.55963 21.2908 6.39586 20.6386 5.42245C19.9864 4.44904 19.0626 3.71446 17.996 3.32104C16.9293 2.92762 15.7729 2.89496 14.6878 3.22761C13.6027 3.56026 12.643 4.24165 11.9423 5.17686C11.2417 4.24165 10.2819 3.56026 9.19685 3.22761C8.11176 2.89496 6.95532 2.92762 5.88866 3.32104C4.82199 3.71446 3.89821 4.44904 3.246 5.42245C2.59379 6.39586 2.24564 7.55963 2.25004 8.75163C2.27994 16.8462 11.9423 21 11.9423 21Z" fill="white" stroke="#002643" stroke-width="1.5" stroke-linecap="round" stroke-linejoin="round"/>
</svg>
