<svg width="67" height="67" viewBox="0 0 67 67" fill="none" xmlns="http://www.w3.org/2000/svg">
<path fill-rule="evenodd" clip-rule="evenodd" d="M33.02 5.08C17.5892 5.08 5.08 17.5892 5.08 33.02C5.08 48.4508 17.5892 60.96 33.02 60.96C48.4508 60.96 60.96 48.4508 60.96 33.02C60.96 17.5892 48.4508 5.08 33.02 5.08ZM0 33.02C0 14.7836 14.7836 0 33.02 0C51.2564 0 66.04 14.7836 66.04 33.02C66.04 51.2564 51.2564 66.04 33.02 66.04C14.7836 66.04 0 51.2564 0 33.02Z" fill="#9C0E14"/>
<path fill-rule="evenodd" clip-rule="evenodd" d="M22.5652 22.5651C23.8051 21.3252 25.8154 21.3252 27.0553 22.5651L44.1178 39.6276C45.3577 40.8675 45.3577 42.8778 44.1178 44.1177C42.8779 45.3576 40.8676 45.3576 39.6277 44.1177L22.5652 27.0552C21.3253 25.8153 21.3253 23.805 22.5652 22.5651Z" fill="#9C0E14"/>
<path fill-rule="evenodd" clip-rule="evenodd" d="M44.1177 22.5651C45.3576 23.805 45.3576 25.8153 44.1177 27.0552L27.0552 44.1177C25.8153 45.3576 23.805 45.3576 22.5651 44.1177C21.3251 42.8778 21.3251 40.8675 22.5651 39.6275L39.6275 22.5651C40.8675 21.3251 42.8778 21.3251 44.1177 22.5651Z" fill="#9C0E14"/>
</svg>
