<svg width="69" height="69" viewBox="0 0 69 69" fill="none" xmlns="http://www.w3.org/2000/svg">
<path fill-rule="evenodd" clip-rule="evenodd" d="M34.06 5.2523C18.1432 5.2523 5.24 18.1857 5.24 34.14C5.24 50.0942 18.1432 63.0276 34.06 63.0276C49.9769 63.0276 62.88 50.0942 62.88 34.14C62.88 18.1857 49.9769 5.2523 34.06 5.2523ZM0 34.14C0 15.285 15.2492 0 34.06 0C52.8708 0 68.12 15.285 68.12 34.14C68.12 52.9949 52.8708 68.2799 34.06 68.2799C15.2492 68.2799 0 52.9949 0 34.14Z" fill="#718138"/>
<path fill-rule="evenodd" clip-rule="evenodd" d="M47.7564 24.843C49.0354 26.125 49.0354 28.2035 47.7564 29.4855L32.0364 45.2423C30.7574 46.5243 28.6838 46.5243 27.4049 45.2423L19.5449 37.3639C18.2659 36.0819 18.2659 34.0034 19.5449 32.7215C20.8238 31.4395 22.8974 31.4395 24.1764 32.7215L29.7206 38.2787L43.1249 24.843C44.4038 23.5611 46.4774 23.5611 47.7564 24.843Z" fill="#718138"/>
</svg>
